<svg xmlns="http://www.w3.org/2000/svg" width="57.067" height="12.18" viewBox="0 0 57.067 12.18"><defs><style>.a{fill:#008aff;}.b{fill:#0f1d2d;}.c{fill:#0e1d2d;}.d{fill:#667782;}</style></defs><g transform="translate(15.66 2.587)"><g transform="translate(17.009 0.028)"><path class="a" d="M313.314,31.916l-1.345-2.176-.677.655v1.521H310.27V24.84h1.022v4.321l1.955-1.922h1.266l-1.822,1.777,1.777,2.9Z" transform="translate(-310.27 -24.84)"/></g><path class="a" d="M152.717,26.2a1.562,1.562,0,0,0-1.4-.678,1.017,1.017,0,0,0-1.155,1.033c0,.489.266.755.855.944l.9.266c1.133.344,1.666.933,1.666,1.855,0,1.277-.967,2.077-2.422,2.077a2.426,2.426,0,0,1-2.432-1.289l.789-.611a1.57,1.57,0,0,0,1.644.944c.833,0,1.267-.422,1.267-1.033,0-.522-.334-.789-.911-.967l-.9-.266C149.5,28.136,149,27.5,149,26.625a2.041,2.041,0,0,1,2.31-2.055,2.455,2.455,0,0,1,2.188,1.022l-.777.611Z" transform="translate(-148.73 -24.57)"/><g transform="translate(4.804 1.033)"><path class="a" d="M196.247,38.924c0,.389.188.6.566.6a1.876,1.876,0,0,0,.6-.122l.056.9a3.027,3.027,0,0,1-.977.178c-.911,0-1.277-.589-1.277-1.421V36.581h-.855V35.8l.855-.1V34.582l1.033-.2V35.7h1.145v.877h-1.145v2.346Z" transform="translate(-194.36 -34.38)"/></g><g transform="translate(8.175 2.256)"><path class="a" d="M228.113,50.076a1.561,1.561,0,0,0,1.111-.478v-1l-.644.088c-.744.1-1.167.334-1.167.8.012.379.245.59.7.59Zm1.178.7V50.21a1.989,1.989,0,0,1-1.521.678,1.275,1.275,0,0,1-1.4-1.345c0-.989.867-1.433,2.21-1.533l.655-.066v-.366c0-.466-.2-.733-.855-.733-.578,0-.855.2-.855.5v.222h-.9a2.816,2.816,0,0,1-.022-.322c0-.722.655-1.245,1.833-1.245,1.133,0,1.822.489,1.822,1.555v3.222h-.967Z" transform="translate(-226.37 -46)"/></g><g transform="translate(12.622 2.255)"><path class="a" d="M270.732,45.99a1.891,1.891,0,0,1,1.811.989l-.733.522a1.079,1.079,0,0,0-1-.6c-.833,0-1.133.644-1.133,1.521s.311,1.521,1.133,1.521a1.1,1.1,0,0,0,1.011-.6l.722.522a1.9,1.9,0,0,1-1.811.989c-1.5,0-2.122-1.1-2.122-2.444.011-1.32.633-2.421,2.122-2.421Z" transform="translate(-268.61 -45.99)"/></g><g transform="translate(21.681)"><path class="b" d="M358.637,26.2a1.562,1.562,0,0,0-1.4-.678,1.017,1.017,0,0,0-1.155,1.033c0,.489.266.755.855.944l.9.266c1.133.344,1.667.933,1.667,1.855,0,1.277-.967,2.077-2.422,2.077a2.429,2.429,0,0,1-2.433-1.289l.789-.611a1.57,1.57,0,0,0,1.644.944c.833,0,1.267-.422,1.267-1.033,0-.522-.334-.789-.911-.967l-.9-.266c-1.122-.344-1.621-.977-1.621-1.855a2.041,2.041,0,0,1,2.31-2.055,2.455,2.455,0,0,1,2.188,1.022l-.777.611Z" transform="translate(-354.65 -24.57)"/></g><g transform="translate(26.487 1.034)"><path class="b" d="M402.177,38.933c0,.389.188.6.566.6a1.876,1.876,0,0,0,.6-.122l.056.9a3.027,3.027,0,0,1-.977.178c-.911,0-1.277-.589-1.277-1.421V36.59h-.855v-.777l.855-.1v-1.12l1.033-.2v1.321h1.144v.877h-1.144v2.345Z" transform="translate(-400.29 -34.39)"/></g><g transform="translate(29.857 2.256)"><path class="b" d="M434.043,50.076a1.559,1.559,0,0,0,1.111-.478v-1l-.644.088c-.744.1-1.167.334-1.167.8,0,.379.245.59.7.59Zm1.178.7V50.21a1.989,1.989,0,0,1-1.521.678,1.275,1.275,0,0,1-1.4-1.345c0-.989.867-1.433,2.21-1.533l.655-.066v-.366c0-.466-.2-.733-.855-.733-.578,0-.855.2-.855.5v.222h-.9a2.812,2.812,0,0,1-.022-.322c0-.722.655-1.245,1.833-1.245,1.133,0,1.822.489,1.822,1.555v3.222h-.967Z" transform="translate(-432.3 -46)"/></g><g transform="translate(34.095 1.034)"><path class="b" d="M474.437,38.933c0,.389.188.6.566.6a1.876,1.876,0,0,0,.6-.122l.056.9a3.021,3.021,0,0,1-.977.178c-.911,0-1.277-.589-1.277-1.421V36.59h-.855v-.777l.855-.1v-1.12l1.033-.2v1.321h1.145v.877h-1.145v2.345Z" transform="translate(-472.55 -34.39)"/></g><g transform="translate(37.375 2.256)"><path class="b" d="M506.766,48a1.041,1.041,0,0,0,.012-.178.907.907,0,0,0-.956-.989c-.733,0-1.033.511-1.077,1.167Zm.378,1.533.489.678a2.427,2.427,0,0,1-1.711.678c-1.567,0-2.222-1.022-2.222-2.444,0-1.345.7-2.444,2.122-2.444a1.819,1.819,0,0,1,1.911,2,4.114,4.114,0,0,1-.066.767h-2.922A1.107,1.107,0,0,0,505.922,50a1.921,1.921,0,0,0,1.222-.467Z" transform="translate(-503.7 -46)"/></g></g><g transform="translate(2.256 1.51)"><path class="c" d="M21.43,16.574,25.3,14.34l3.869,2.234-3.63,2.092a.47.47,0,0,1-.479,0Z" transform="translate(-21.43 -14.34)"/></g><g transform="translate(2.256 5.302)"><path class="c" d="M25.059,51.82,22.53,50.36,21.43,51l3.629,2.092a.47.47,0,0,0,.479,0L29.168,51l-1.1-.638-2.529,1.46A.47.47,0,0,1,25.059,51.82Z" transform="translate(-21.43 -50.36)"/></g><g transform="translate(2.256 7.547)"><path class="c" d="M25.059,73.14,22.53,71.68l-1.1.638,3.629,2.092a.47.47,0,0,0,.479,0l3.629-2.092-1.1-.638-2.524,1.46A.48.48,0,0,1,25.059,73.14Z" transform="translate(-21.43 -71.68)"/></g><g transform="translate(0 0.017)"><path class="d" d="M0,6.235a6.073,6.073,0,0,0,.774,2.97l.686-.4V8.181a.484.484,0,0,1,.24-.414l.867-.5-.839-.485a.485.485,0,0,1-.24-.414V5.931a.467.467,0,0,1,.24-.414l.834-.491-.829-.479a.485.485,0,0,1-.24-.414V3.753a.488.488,0,0,1,.24-.42l3.95-2.273V.16A6.1,6.1,0,0,0,0,6.235Z" transform="translate(0 -0.16)"/></g><g transform="translate(6.54)"><path class="d" d="M67.794,6.082a6.073,6.073,0,0,1-.774,2.97l-.686-.4V8.027a.484.484,0,0,0-.24-.414l-.867-.5.839-.485a.485.485,0,0,0,.24-.414V5.777a.467.467,0,0,0-.24-.414l-.834-.491.829-.479a.485.485,0,0,0,.24-.414V3.6a.488.488,0,0,0-.24-.42L62.11.9V0A6.1,6.1,0,0,1,67.794,6.082Z" transform="translate(-62.11)"/></g><g transform="translate(1.199 9.095)"><path class="d" d="M16.3,89.465A6.1,6.1,0,0,0,21.2,87l-1.047-.6-3.591,2.064a.47.47,0,0,1-.479,0L12.452,86.38l-.665.381-.076.043h0l-.321.185A6.113,6.113,0,0,0,16.3,89.465Z" transform="translate(-11.39 -86.38)"/></g></svg>