<svg xmlns="http://www.w3.org/2000/svg" width="25.512" height="18.697" viewBox="0 0 25.512 18.697"><defs><style>.a{fill:#fff;}.a,.b{fill-rule:evenodd;}.b{fill:#1eb0e0;}</style></defs><path class="a" d="M2.931.81A.19.19,0,0,0,2.793.751H2.537a.36.36,0,0,1-.306-.2L2.085.2A.135.135,0,0,1,2.219,0h.8a.477.477,0,0,1,.351.147L3.86.64a.22.22,0,0,1,0,.31l-.238.238a.221.221,0,0,1-.311,0ZM1.126,5a.477.477,0,0,1-.351-.147L.148,4.226A.474.474,0,0,1,0,3.875V1.123A.474.474,0,0,1,.148.773L.775.147A.477.477,0,0,1,1.126,0h.137a.291.291,0,0,1,.246.161l.167.388a.134.134,0,0,1-.133.2h-.2A.19.19,0,0,0,1.209.81l-.344.343a.19.19,0,0,0-.059.138V3.708a.189.189,0,0,0,.059.138l.344.343a.19.19,0,0,0,.138.059h.263a.361.361,0,0,1,.306.2l.147.347a.135.135,0,0,1-.134.2ZM2.885,5a.291.291,0,0,1-.246-.161l-.167-.388a.134.134,0,0,1,.133-.2h.135a.191.191,0,0,0,.136-.057l0,0,.381-.38h0a.188.188,0,0,0,.059-.137V3.052a.22.22,0,0,0-.22-.219H2.552a.221.221,0,0,1-.22-.22V2.332a.221.221,0,0,1,.22-.22H3.867a.221.221,0,0,1,.22.22V3.875a.473.473,0,0,1-.148.35l-.627.625A.477.477,0,0,1,2.961,5Zm3.38,0A.765.765,0,0,1,6.1,4.977a.431.431,0,0,1-.193-.125l-.627-.625a.473.473,0,0,1-.148-.35V1.123a.473.473,0,0,1,.148-.35L5.905.147A.477.477,0,0,1,6.256,0h.138A.291.291,0,0,1,6.64.161l.167.388a.134.134,0,0,1-.133.2H6.486A.19.19,0,0,0,6.348.81L6,1.153a.19.19,0,0,0-.059.138V3.708A.189.189,0,0,0,6,3.846l.344.343a.191.191,0,0,0,.138.059h.255a.361.361,0,0,1,.306.2l.147.347A.135.135,0,0,1,7.06,5ZM8.015,5a.291.291,0,0,1-.246-.161L7.6,4.449a.134.134,0,0,1,.133-.2h.188a.192.192,0,0,0,.138-.059l.344-.343a.19.19,0,0,0,.059-.138V1.291a.19.19,0,0,0-.058-.137h0L8.062.81A.19.19,0,0,0,7.923.751H7.668a.36.36,0,0,1-.306-.2L7.215.2A.135.135,0,0,1,7.35,0h.8A.478.478,0,0,1,8.5.147l.627.625a.474.474,0,0,1,.148.35V3.875a.474.474,0,0,1-.148.35L8.5,4.851a.434.434,0,0,1-.193.126A.775.775,0,0,1,8.145,5Z" transform="translate(0)"/><path class="b" d="M.4,33.388a.176.176,0,0,1-.176-.176V28.565A.176.176,0,0,1,.4,28.39H.521a.291.291,0,0,1,.246.161l.19.441a1.269,1.269,0,0,1,.087.421v2.951a1.27,1.27,0,0,1-.087.421l-.19.441a.291.291,0,0,1-.246.161Zm1.078,0a.135.135,0,0,1-.134-.2l.147-.347a.361.361,0,0,1,.306-.2h1a.192.192,0,0,0,.138-.059l.344-.343a.19.19,0,0,0,.059-.138V29.7a.191.191,0,0,0-.057-.136l0,0L2.916,29.2a.19.19,0,0,0-.138-.059H1.8a.361.361,0,0,1-.306-.2l-.147-.347a.135.135,0,0,1,.134-.2H3.023a.477.477,0,0,1,.351.147L4,29.162a.475.475,0,0,1,.147.35v2.753a.474.474,0,0,1-.147.35l-.627.625a.477.477,0,0,1-.351.147Zm3.806,0a.22.22,0,0,1-.22-.22v-.385a.854.854,0,0,1,.057-.316l0-.005L6.5,29.21c.047-.111.124-.111.171,0l.24.566a.611.611,0,0,1,0,.406L6.5,31.191a.138.138,0,0,0,.137.2h.712a.361.361,0,0,1,.306.2l.154.363a.094.094,0,0,1-.093.14H6.348a.355.355,0,0,0-.3.2l-.121.3-.055.139a.306.306,0,0,0-.014.107v.324a.22.22,0,0,1-.22.22Zm3.64,0a.22.22,0,0,1-.22-.22V32.86a.527.527,0,0,0-.013-.121.658.658,0,0,0-.027-.091l0,0L6.973,28.592a.136.136,0,0,1,.136-.2h.405a.362.362,0,0,1,.306.2l1.645,3.856,0,.006a.856.856,0,0,1,.057.315v.4a.22.22,0,0,1-.22.22Z" transform="translate(-0.169 -21.54)"/><path class="a" d="M21.486,61.777a.22.22,0,0,1-.22-.219v-4.6a.176.176,0,0,1,.176-.176h.123a.29.29,0,0,1,.246.161l.19.441a1.274,1.274,0,0,1,.087.421v3.755a.22.22,0,0,1-.22.219Zm3.028,0a.22.22,0,0,1-.22-.219V60.372a.19.19,0,0,0-.057-.136l0,0-.374-.373a.191.191,0,0,0-.138-.058h-.9a.22.22,0,0,1-.22-.22v-.3a.221.221,0,0,1,.22-.22h.913a.19.19,0,0,0,.138-.059l.359-.358a.19.19,0,0,0,.059-.138v-.572a.189.189,0,0,0-.059-.138l-.23-.229a.189.189,0,0,0-.138-.059H22.839a.364.364,0,0,1-.307-.2l-.144-.332a.134.134,0,0,1,.133-.2H24.1a.455.455,0,0,1,.336.14l.5.5a.474.474,0,0,1,.148.35v.846a.473.473,0,0,1-.148.35l-.374.373a.132.132,0,0,0,0,.186l.374.373a.473.473,0,0,1,.148.35v1.307a.22.22,0,0,1-.22.219Zm1.942,0a.22.22,0,0,1-.22-.219V57a.22.22,0,0,1,.22-.219h.382a.22.22,0,0,1,.22.219v4.559a.22.22,0,0,1-.22.219Zm4.032-1.522a.635.635,0,0,1,0-.408l.914-2.3a.667.667,0,0,0,.029-.094.527.527,0,0,0,.013-.12V57a.22.22,0,0,1,.22-.219h.359a.22.22,0,0,1,.22.219v.423a.858.858,0,0,1-.058.319h0l-1.246,3.145c-.053.135-.141.135-.2,0Zm-.6,1.522a.351.351,0,0,1-.3-.2L28.053,57.74a.851.851,0,0,1-.058-.319V57a.22.22,0,0,1,.22-.219H28.6a.22.22,0,0,1,.22.219v.332a.553.553,0,0,0,.013.12.651.651,0,0,0,.029.095l1.6,4.028a.139.139,0,0,1-.139.2Zm4.862-4.232a.357.357,0,0,1-.3-.2l-.15-.361a.136.136,0,0,1,.136-.2h2.024a.22.22,0,0,1,.22.219v.327a.22.22,0,0,1-.22.22Zm-.015,2.112a.221.221,0,0,1-.22-.22V59.11a.221.221,0,0,1,.22-.22h1.72a.22.22,0,0,1,.22.22v.327a.22.22,0,0,1-.22.22Zm-1.382,2.12a.176.176,0,0,1-.176-.176V56.954a.176.176,0,0,1,.176-.175h.122a.289.289,0,0,1,.245.162l.2.463a1.288,1.288,0,0,1,.085.422l0,2.922a1.283,1.283,0,0,1-.087.421l-.191.447a.29.29,0,0,1-.245.161Zm1.078,0a.136.136,0,0,1-.136-.2l.15-.361a.357.357,0,0,1,.3-.2h1.7a.22.22,0,0,1,.22.22v.327a.22.22,0,0,1-.22.22ZM41,59.359a.714.714,0,0,1-.14-.389V57a.22.22,0,0,1,.22-.22h.344a.22.22,0,0,1,.22.22v2.881c0,.145-.075.172-.167.06Zm-2.955,2.417a.22.22,0,0,1-.22-.219V58.676c0-.145.075-.172.167-.06l.477.579a.715.715,0,0,1,.14.389v1.972a.22.22,0,0,1-.22.219Zm3,0a.22.22,0,0,1-.22-.219v-.24a.188.188,0,0,0-.054-.133l-.011-.012-2.79-3.406a.778.778,0,0,1-.1-.166.428.428,0,0,1-.038-.18V57a.22.22,0,0,1,.22-.22h.382a.22.22,0,0,1,.22.22v.24a.188.188,0,0,0,.054.133l.011.012,2.79,3.406a.772.772,0,0,1,.1.166.426.426,0,0,1,.038.18v.423a.22.22,0,0,1-.22.219Z" transform="translate(-16.135 -43.08)"/><path class="b" d="M42.139,29.156a.357.357,0,0,1-.3-.2l-.176-.424a.094.094,0,0,1,.094-.14h.968a.22.22,0,0,1,.22.219v.327a.22.22,0,0,1-.22.219Zm-1.353,4.232a.221.221,0,0,1-.22-.22V29.375a.22.22,0,0,0-.22-.22H39.234a.22.22,0,0,1-.22-.219v-.327a.22.22,0,0,1,.22-.219h1.587a.36.36,0,0,1,.306.2l.179.423a1.289,1.289,0,0,1,.086.422l0,3.732a.221.221,0,0,1-.22.22Z" transform="translate(-29.601 -21.54)"/><path class="a" d="M.4,61.777A.176.176,0,0,1,.222,61.6V56.954A.176.176,0,0,1,.4,56.779H.521a.291.291,0,0,1,.246.161l.19.441a1.271,1.271,0,0,1,.087.421v2.951a1.271,1.271,0,0,1-.087.421l-.19.441a.291.291,0,0,1-.246.161Zm1.078,0a.135.135,0,0,1-.134-.2l.147-.347a.361.361,0,0,1,.306-.2h1a.191.191,0,0,0,.138-.058l.344-.343a.19.19,0,0,0,.059-.138v-2.4a.19.19,0,0,0-.057-.136l0,0-.359-.357h0a.189.189,0,0,0-.138-.058H1.8a.361.361,0,0,1-.306-.2l-.147-.347a.135.135,0,0,1,.134-.2H3.023a.477.477,0,0,1,.351.147L4,57.551a.475.475,0,0,1,.147.35v2.753A.475.475,0,0,1,4,61l-.627.625a.477.477,0,0,1-.351.147Z" transform="translate(-0.169 -43.08)"/><path class="b" d="M55.746,35.7a.22.22,0,0,1-.22-.22V35.1a.852.852,0,0,1,.057-.316l0,0,1.379-3.253c.047-.111.124-.111.171,0l.24.566a.607.607,0,0,1,0,.405l-.99,2.417-.056.139a.314.314,0,0,0-.014.107v.324a.22.22,0,0,1-.22.22Z" transform="translate(-42.13 -23.857)"/><path class="b" d="M64.686,33.388a.22.22,0,0,1-.22-.22V32.86a.542.542,0,0,0-.012-.12.67.67,0,0,0-.028-.092l0,0-.142-.341a.357.357,0,0,0-.3-.2H62.616a.094.094,0,0,1-.094-.14l.151-.362a.358.358,0,0,1,.3-.2h.705a.136.136,0,0,0,.136-.2l-1.082-2.6a.136.136,0,0,1,.136-.2h.405a.362.362,0,0,1,.306.2l1.645,3.856,0,.006a.858.858,0,0,1,.056.315v.4a.22.22,0,0,1-.22.22Z" transform="translate(-47.43 -21.54)"/><path class="b" d="M4.66.7a.176.176,0,0,1,.176.176V4.647a.176.176,0,0,1-.176.176H4.537a.291.291,0,0,1-.246-.161L4.1,4.22A1.269,1.269,0,0,1,4.014,3.8V1.726A1.271,1.271,0,0,1,4.1,1.3l.19-.441A.291.291,0,0,1,4.537.7ZM0,.176A.176.176,0,0,1,.176,0H3.955a.176.176,0,0,1,.176.176V.3A.29.29,0,0,1,3.97.543l-.442.19a1.279,1.279,0,0,1-.422.087H1.026A1.279,1.279,0,0,1,.6.733L.162.543A.29.29,0,0,1,0,.3Z" transform="translate(20.676 0.009)"/></svg>