<svg xmlns="http://www.w3.org/2000/svg" width="1043.108" height="1033.267" viewBox="0 0 1043.108 1033.267"><defs><style>.a{fill:#6ce4e6;}.b{fill:#f67db1;}.c{fill:#ffd657;}</style></defs><g transform="translate(-35.272 521.996) rotate(-45)"><path class="a" d="M73.092,42.874a4.9,4.9,0,1,1,1.01,6.851A4.889,4.889,0,0,1,73.092,42.874Z" transform="translate(124.705 70.725)"/><path class="a" d="M159.551,176.594a6.126,6.126,0,1,1,8.652.437A6.127,6.127,0,0,1,159.551,176.594Z" transform="translate(273.189 287.702)"/><path class="a" d="M184.268,274.5a11.179,11.179,0,1,1,10.344,11.955A11.144,11.144,0,0,1,184.268,274.5Z" transform="translate(318.617 456.813)"/><path class="a" d="M69.986,281.639a6.181,6.181,0,1,1-7.56-4.34A6.128,6.128,0,0,1,69.986,281.639Z" transform="translate(100.026 479.175)"/><path class="a" d="M54.957,6.815a4.474,4.474,0,1,1-5.022,3.848A4.465,4.465,0,0,1,54.957,6.815Z" transform="translate(86.287 11.72)"/><path class="a" d="M131.025,251.052a8.968,8.968,0,1,1-.682,12.664A8.974,8.974,0,0,1,131.025,251.052Z" transform="translate(221.445 430.201)"/><path class="a" d="M165.665,137.026a12.2,12.2,0,1,1-15.475,7.642A12.2,12.2,0,0,1,165.665,137.026Z" transform="translate(258.614 235.836)"/><path class="a" d="M229.014,145.572a5.027,5.027,0,1,1-1.692-6.905A5.046,5.046,0,0,1,229.014,145.572Z" transform="translate(379.935 238.563)"/><path class="a" d="M88.274,113.658a8.852,8.852,0,1,1-3.439,12.036A8.845,8.845,0,0,1,88.274,113.658Z" transform="translate(144.786 194.627)"/><path class="a" d="M125.192,175.93a4.591,4.591,0,1,1-5.622,3.248A4.6,4.6,0,0,1,125.192,175.93Z" transform="translate(206.507 303.978)"/><path class="a" d="M256.2,35.005a4.436,4.436,0,1,1-2.839-5.6A4.446,4.446,0,0,1,256.2,35.005Z" transform="translate(428.103 50.481)"/><path class="a" d="M253.02,249.117a12.54,12.54,0,1,1-16.4,6.742A12.543,12.543,0,0,1,253.02,249.117Z" transform="translate(407.514 429.134)"/><path class="a" d="M214.113,97.68a6.548,6.548,0,1,1-3.576,8.543A6.539,6.539,0,0,1,214.113,97.68Z" transform="translate(363.23 168.081)"/><path class="a" d="M279.407,232.365a11.88,11.88,0,1,1,2.948-16.54A11.875,11.875,0,0,1,279.407,232.365Z" transform="translate(450.89 364.442)"/><path class="a" d="M83.768,225.735a5.011,5.011,0,1,1,6.087,3.63A5.02,5.02,0,0,1,83.768,225.735Z" transform="translate(144.597 379.588)"/><path class="a" d="M88.438,24.045a5.19,5.19,0,1,1-6.25,3.848A5.2,5.2,0,0,1,88.438,24.045Z" transform="translate(141.892 41.327)"/><path class="a" d="M3.978,101.461a5.028,5.028,0,1,1,6.878-1.774A5.037,5.037,0,0,1,3.978,101.461Z" transform="translate(2.544 159.251)"/><path class="a" d="M98.47,54.592a5.824,5.824,0,1,1,4.613-6.823A5.816,5.816,0,0,1,98.47,54.592Z" transform="translate(158.309 74.455)"/><path class="a" d="M91.344,82.276a9.432,9.432,0,1,1-7.779-10.836A9.443,9.443,0,0,1,91.344,82.276Z" transform="translate(125.558 123.33)"/><path class="a" d="M181.6,231.176a4.62,4.62,0,1,1-1.5-6.359A4.591,4.591,0,0,1,181.6,231.176Z" transform="translate(299.26 387.575)"/><path class="a" d="M216.443,84.623a10.663,10.663,0,1,1,12.61,8.27A10.671,10.671,0,0,1,216.443,84.623Z" transform="translate(373.919 124.15)"/><path class="a" d="M12.453,259.5a6.049,6.049,0,1,1-7.042-4.858A6.05,6.05,0,0,1,12.453,259.5Z" transform="translate(0.784 440.18)"/><path class="a" d="M228.564,11.905a4.77,4.77,0,1,1-2.538-6.25A4.784,4.784,0,0,1,228.564,11.905Z" transform="translate(379.43 9.141)"/><path class="a" d="M169.67,30.826a4.52,4.52,0,1,1-6.387.273A4.526,4.526,0,0,1,169.67,30.826Z" transform="translate(280.321 51.276)"/><path class="a" d="M31.232.767A8.833,8.833,0,1,1,19.577,5.216,8.86,8.86,0,0,1,31.232.767Z" transform="translate(32.499 0)"/><path class="a" d="M137.879,52.02a5.041,5.041,0,1,1-4.312,5.677A5.043,5.043,0,0,1,137.879,52.02Z" transform="translate(230.912 89.882)"/><path class="a" d="M246.645,86.2a9.693,9.693,0,1,1-2.32,13.51A9.7,9.7,0,0,1,246.645,86.2Z" transform="translate(419.457 146.013)"/><path class="a" d="M252.52,213.828a7.585,7.585,0,1,1-.082-10.726A7.586,7.586,0,0,1,252.52,213.828Z" transform="translate(414.237 347.47)"/><path class="a" d="M280.042,19.446A11.7,11.7,0,1,1,263.721,22.2,11.686,11.686,0,0,1,280.042,19.446Z" transform="translate(452.328 29.904)"/><path class="a" d="M281.447,184.19a11.573,11.573,0,1,1-11.627,11.518A11.579,11.579,0,0,1,281.447,184.19Z" transform="translate(466.617 318.535)"/><path class="a" d="M22.667,157.375A9.743,9.743,0,1,1,19.583,170.8,9.738,9.738,0,0,1,22.667,157.375Z" transform="translate(31.319 269.583)"/><path class="a" d="M129.618,145.563a11.605,11.605,0,1,1,11.245-11.927A11.614,11.614,0,0,1,129.618,145.563Z" transform="translate(203.473 211.605)"/><path class="a" d="M282.218,165.74a4.97,4.97,0,1,1-6.96.983A4.941,4.941,0,0,1,282.218,165.74Z" transform="translate(474.308 284.881)"/><path class="a" d="M10.666,35.7a4.913,4.913,0,1,1-.983-6.878A4.92,4.92,0,0,1,10.666,35.7Z" transform="translate(3.171 48.126)"/><path class="a" d="M12.781,171.053a4.757,4.757,0,1,1-3.139-5.95A4.76,4.76,0,0,1,12.781,171.053Z" transform="translate(6.023 285.164)"/><path class="a" d="M135.769,17.113a5.215,5.215,0,1,1-5.6-4.8A5.2,5.2,0,0,1,135.769,17.113Z" transform="translate(216.783 21.264)"/><path class="a" d="M4.875,115.4a9.961,9.961,0,1,1-1.283,14.029A9.958,9.958,0,0,1,4.875,115.4Z" transform="translate(2.221 195.585)"/><path class="a" d="M1.428,219.4a6.543,6.543,0,1,1,7.451,5.486A6.538,6.538,0,0,1,1.428,219.4Z" transform="translate(2.338 366.408)"/><path class="a" d="M183.95,99.955a7.65,7.65,0,1,1-8.925-6.114A7.672,7.672,0,0,1,183.95,99.955Z" transform="translate(291.887 162.067)"/><path class="a" d="M115.514,221.105a8.724,8.724,0,1,1-12.091,2.456A8.72,8.72,0,0,1,115.514,221.105Z" transform="translate(176.337 379.877)"/><path class="a" d="M44.885,266.353a8.071,8.071,0,1,1,.328-11.409A8.067,8.067,0,0,1,44.885,266.353Z" transform="translate(54.081 436.517)"/><path class="a" d="M54.766,124.05a9.874,9.874,0,1,1,3.357-13.565A9.86,9.86,0,0,1,54.766,124.05Z" transform="translate(68.847 182.816)"/><path class="a" d="M239.206,177.566a11.054,11.054,0,1,1,2.211-15.476A11.057,11.057,0,0,1,239.206,177.566Z" transform="translate(383.09 272.673)"/><path class="a" d="M32.771,151.466a9.517,9.517,0,1,1,.655-13.428A9.535,9.535,0,0,1,32.771,151.466Z" transform="translate(29.157 233.296)"/><path class="a" d="M56.367,95.838a8.751,8.751,0,1,1,12.2,2.074A8.776,8.776,0,0,1,56.367,95.838Z" transform="translate(94.703 141.866)"/><path class="a" d="M255.9,129.671a4.518,4.518,0,1,1-6.3-1.037A4.536,4.536,0,0,1,255.9,129.671Z" transform="translate(428.384 221.002)"/><path class="a" d="M269.8,235.639a5.226,5.226,0,1,1-6.359-3.767A5.231,5.231,0,0,1,269.8,235.639Z" transform="translate(448.789 400.716)"/><path class="a" d="M195.112,257.34a10.746,10.746,0,1,1,14.548,4.394A10.737,10.737,0,0,1,195.112,257.34Z" transform="translate(335.203 417.663)"/><path class="a" d="M12.009,149.822a7.4,7.4,0,1,1,1.174-10.4A7.409,7.409,0,0,1,12.009,149.822Z" transform="translate(0 236.305)"/><path class="a" d="M50.227,218.908a9.035,9.035,0,1,1-12.009,4.34A9.025,9.025,0,0,1,50.227,218.908Z" transform="translate(64.597 377.08)"/><path class="a" d="M132.846,97.207a8.96,8.96,0,1,1,10.781,6.66A8.952,8.952,0,0,1,132.846,97.207Z" transform="translate(229.314 149.04)"/><path class="a" d="M66.054,21.949a7.691,7.691,0,1,1-4.995,9.662A7.7,7.7,0,0,1,66.054,21.949Z" transform="translate(104.968 37.336)"/><path class="a" d="M59.126,135.561a7.845,7.845,0,1,1-7.178-8.434A7.894,7.894,0,0,1,59.126,135.561Z" transform="translate(75.158 219.806)"/><path class="a" d="M203.405,81.989a9.62,9.62,0,1,1-11.027,7.97A9.627,9.627,0,0,1,203.405,81.989Z" transform="translate(332.478 141.577)"/><path class="a" d="M19.791,57.857a11.583,11.583,0,1,1,14.356,7.888A11.589,11.589,0,0,1,19.791,57.857Z" transform="translate(33.431 74.438)"/><path class="a" d="M126.723,238.659a5.327,5.327,0,1,1-7.424-1.283A5.332,5.332,0,0,1,126.723,238.659Z" transform="translate(202.411 408.832)"/><path class="a" d="M128.4,222.37a6.672,6.672,0,1,1,8.379,4.34A6.661,6.661,0,0,1,128.4,222.37Z" transform="translate(221.504 369.524)"/><path class="a" d="M52.415,166.431a6.115,6.115,0,1,1-6,6.223A6.1,6.1,0,0,1,52.415,166.431Z" transform="translate(80.259 287.821)"/><path class="a" d="M260.229,249.606a10.488,10.488,0,1,1-3.275,14.466A10.482,10.482,0,0,1,260.229,249.606Z" transform="translate(441.6 428.863)"/><path class="a" d="M204.306,279.349a4.535,4.535,0,1,1-6.278-1.31A4.533,4.533,0,0,1,204.306,279.349Z" transform="translate(338.919 479.555)"/><path class="b" d="M148.854,99.152a10.182,10.182,0,1,1,4.258,13.756A10.184,10.184,0,0,1,148.854,99.152Z" transform="translate(255.392 162.079)"/><path class="b" d="M219.232,62.31a5.5,5.5,0,1,1-2.4-7.4A5.488,5.488,0,0,1,219.232,62.31Z" transform="translate(361.14 93.921)"/><path class="b" d="M155.5,153.634a12.007,12.007,0,1,1-16.922,1.556A12.028,12.028,0,0,1,155.5,153.634Z" transform="translate(234.879 260.878)"/><path class="b" d="M250.634,164.359a11.681,11.681,0,1,1,10.672,12.61A11.68,11.68,0,0,1,250.634,164.359Z" transform="translate(433.372 265.711)"/><path class="b" d="M219.432,223.5a5.127,5.127,0,1,1,4.476,5.7A5.129,5.129,0,0,1,219.432,223.5Z" transform="translate(379.418 378.712)"/><path class="b" d="M23.71,116.043a4.651,4.651,0,1,1-1.037,6.5A4.638,4.638,0,0,1,23.71,116.043Z" transform="translate(37.673 199.147)"/><path class="b" d="M213.686,39.613a4.5,4.5,0,1,1-4.2-4.776A4.493,4.493,0,0,1,213.686,39.613Z" transform="translate(353.995 60.231)"/><path class="b" d="M250.483,280.285a4.613,4.613,0,1,1,.082-6.523A4.613,4.613,0,0,1,250.483,280.285Z" transform="translate(419.63 471.031)"/><path class="b" d="M255.439,232.479a9.015,9.015,0,1,1-9.416-8.625A9.005,9.005,0,0,1,255.439,232.479Z" transform="translate(410.58 387.118)"/><path class="b" d="M274.617,281.411a5.156,5.156,0,1,1,4.8,5.486A5.16,5.16,0,0,1,274.617,281.411Z" transform="translate(474.894 478.339)"/><path class="b" d="M235.188,277.446a10.87,10.87,0,1,1-14.629-4.722A10.867,10.867,0,0,1,235.188,277.446Z" transform="translate(371.195 469.585)"/><path class="b" d="M66.851,126.042a5.118,5.118,0,1,1,3.193,6.5A5.1,5.1,0,0,1,66.851,126.042Z" transform="translate(115.142 211.966)"/><path class="b" d="M220.125,200.26a4.753,4.753,0,1,1,.328,6.714A4.748,4.748,0,0,1,220.125,200.26Z" transform="translate(378.561 343.625)"/><path class="b" d="M180.408,65.007a4.8,4.8,0,1,1-5.131-4.449A4.8,4.8,0,0,1,180.408,65.007Z" transform="translate(295.402 104.708)"/><path class="b" d="M152.443,38.561a6.076,6.076,0,1,1-3.876-7.67A6.052,6.052,0,0,1,152.443,38.561Z" transform="translate(243.124 52.903)"/><path class="b" d="M238.266,125.99a5.479,5.479,0,1,1-1.283-7.642A5.495,5.495,0,0,1,238.266,125.99Z" transform="translate(394.865 202.901)"/><path class="b" d="M91.952,277.775a12.349,12.349,0,1,1,2.893-17.222A12.363,12.363,0,0,1,91.952,277.775Z" transform="translate(125.278 441.635)"/><path class="b" d="M144.793,272.475a4.907,4.907,0,1,1-6.578-2.211A4.907,4.907,0,0,1,144.793,272.475Z" transform="translate(234.316 466.504)"/><path class="b" d="M94.99,192.757a12.226,12.226,0,1,1-5.213-16.485A12.259,12.259,0,0,1,94.99,192.757Z" transform="translate(124.368 302.462)"/><path class="b" d="M150.889,238.186a10.769,10.769,0,1,1-3.139,14.9A10.78,10.78,0,0,1,150.889,238.186Z" transform="translate(252.484 408.896)"/><path class="b" d="M33.064,108.217a9.225,9.225,0,1,1,1.883-12.91A9.21,9.21,0,0,1,33.064,108.217Z" transform="translate(31.676 158.39)"/><path class="b" d="M14.046,79.545A4.848,4.848,0,1,1,19.5,75.4,4.856,4.856,0,0,1,14.046,79.545Z" transform="translate(17.041 120.875)"/><path class="b" d="M40.117,149.161A8.511,8.511,0,1,1,42,161.034,8.541,8.541,0,0,1,40.117,149.161Z" transform="translate(66.573 251.868)"/><path class="b" d="M118.648,104.624a10.828,10.828,0,1,1,1.31,15.257A10.82,10.82,0,0,1,118.648,104.624Z" transform="translate(200.796 174.266)"/><path class="b" d="M201.791,141.717a4.743,4.743,0,1,1-6.414-1.965A4.737,4.737,0,0,1,201.791,141.717Z" transform="translate(333.519 240.725)"/><path class="b" d="M111.1,93.845a7.795,7.795,0,1,1,10.235,4.094A7.805,7.805,0,0,1,111.1,93.845Z" transform="translate(191.041 143.504)"/><path class="b" d="M48.459,81.217a12.283,12.283,0,1,1,17.168,2.647A12.27,12.27,0,0,1,48.459,81.217Z" transform="translate(79.684 106.649)"/><path class="b" d="M49.549,82.028a11.155,11.155,0,1,1-14.82,5.4A11.147,11.147,0,0,1,49.549,82.028Z" transform="translate(58.261 140.063)"/><path class="b" d="M16.241,193.878a5.472,5.472,0,1,1-4.749-6.114A5.51,5.51,0,0,1,16.241,193.878Z" transform="translate(9.223 324.65)"/><path class="b" d="M219.161,265.474a4.677,4.677,0,1,1,6.523,1.092A4.629,4.629,0,0,1,219.161,265.474Z" transform="translate(377.505 446.321)"/><path class="b" d="M21.109,226.339a4.578,4.578,0,1,1,.273,6.469A4.576,4.576,0,0,1,21.109,226.339Z" transform="translate(34.433 388.864)"/><path class="b" d="M272.382,156.224a7.9,7.9,0,1,1,8.352-7.424A7.889,7.889,0,0,1,272.382,156.224Z" transform="translate(458.187 242.867)"/><path class="b" d="M191.317,65.7a6.1,6.1,0,1,1-2.893,8.134A6.114,6.114,0,0,1,191.317,65.7Z" transform="translate(324.833 112.609)"/><path class="b" d="M108.811,209.282A12.44,12.44,0,1,1,97.13,196.154,12.45,12.45,0,0,1,108.811,209.282Z" transform="translate(145.183 339.187)"/><path class="b" d="M261.563,198.75a5.274,5.274,0,1,1,1.146,7.369A5.273,5.273,0,0,1,261.563,198.75Z" transform="translate(450.583 339.976)"/><path class="b" d="M82.713,159.017a9.644,9.644,0,1,1-.71,13.62A9.659,9.659,0,0,1,82.713,159.017Z" transform="translate(137.519 270.725)"/><path class="b" d="M180.019,196.67a5.5,5.5,0,1,1-2.729-7.287A5.506,5.506,0,0,1,180.019,196.67Z" transform="translate(293.144 326.662)"/><path class="b" d="M201.283,191.32a6.883,6.883,0,1,1,4.667,8.543A6.853,6.853,0,0,1,201.283,191.32Z" transform="translate(347.592 322.295)"/><path class="b" d="M100.806,193.123a5.447,5.447,0,1,1,5.977-4.858A5.45,5.45,0,0,1,100.806,193.123Z" transform="translate(165.88 315.197)"/><path class="b" d="M52.252,41.454a10.17,10.17,0,1,1-8.9-11.3A10.2,10.2,0,0,1,52.252,41.454Z" transform="translate(55.312 52.03)"/><path class="b" d="M229.329,240.895a5.848,5.848,0,1,1-8.106-1.638A5.82,5.82,0,0,1,229.329,240.895Z" transform="translate(378.037 412.082)"/><path class="b" d="M268.881,72.165a12.467,12.467,0,1,1-12.036,12.883A12.47,12.47,0,0,1,268.881,72.165Z" transform="translate(444.166 124.789)"/><path class="b" d="M61.163,106.4a9.343,9.343,0,1,1,6.523,11.491A9.342,9.342,0,0,1,61.163,106.4Z" transform="translate(105.192 172.139)"/><path class="b" d="M165.832,82.514a4.439,4.439,0,1,1,.082-6.278A4.465,4.465,0,0,1,165.832,82.514Z" transform="translate(273.732 129.506)"/><path class="b" d="M97.25,82.632a9.284,9.284,0,1,1,12.282-4.64A9.3,9.3,0,0,1,97.25,82.632Z" transform="translate(158.737 112.221)"/><path class="b" d="M191.558,105.129a4.663,4.663,0,1,1-3.739,5.431A4.656,4.656,0,0,1,191.558,105.129Z" transform="translate(324.674 181.676)"/><path class="b" d="M57.128,253.934a10.96,10.96,0,1,1,14.466-5.568A10.951,10.951,0,0,1,57.128,253.934Z" transform="translate(87.528 402.864)"/><path class="b" d="M273.377,259.991a8.623,8.623,0,1,1,6.414,10.372A8.617,8.617,0,0,1,273.377,259.991Z" transform="translate(472.368 438.13)"/><path class="b" d="M243.085,186.712a6.159,6.159,0,1,1,.737-8.679A6.175,6.175,0,0,1,243.085,186.712Z" transform="translate(402.874 304.113)"/><path class="b" d="M179.828,141.945a5.7,5.7,0,1,1,6.55-4.695A5.7,5.7,0,0,1,179.828,141.945Z" transform="translate(302.779 225.895)"/><path class="b" d="M36.565,273.648a11.515,11.515,0,1,1-3.794,15.83A11.525,11.525,0,0,1,36.565,273.648Z" transform="translate(53.722 470.326)"/><path class="b" d="M283.6,231.023a7.858,7.858,0,1,1-9.28,6.114A7.849,7.849,0,0,1,283.6,231.023Z" transform="translate(474.124 399.246)"/><path class="b" d="M199.263,206.617a10.47,10.47,0,1,1-14.766-1.092A10.487,10.487,0,0,1,199.263,206.617Z" transform="translate(312.794 351.051)"/><path class="b" d="M64.695,44.985a8.08,8.08,0,1,1-10.726-4.012A8.07,8.07,0,0,1,64.695,44.985Z" transform="translate(85.174 69.624)"/><path class="b" d="M273,82.155a9.764,9.764,0,1,1,10.372,9.116A9.769,9.769,0,0,1,273,82.155Z" transform="translate(472.086 124.106)"/><path class="b" d="M269.359,98.644a11.177,11.177,0,1,1-.355,15.8A11.172,11.172,0,0,1,269.359,98.644Z" transform="translate(459.845 165.234)"/><path class="b" d="M13.755,283.812a7.88,7.88,0,1,1,10.917-2.238A7.88,7.88,0,0,1,13.755,283.812Z" transform="translate(17.659 465.812)"/><path class="b" d="M206.535,4.839a12.038,12.038,0,1,1-9.526,14.111A12.046,12.046,0,0,1,206.535,4.839Z" transform="translate(340.321 7.992)"/><path class="b" d="M31.959,196.786a12.223,12.223,0,1,1,17.277-.573A12.238,12.238,0,0,1,31.959,196.786Z" transform="translate(48.584 303.755)"/><path class="b" d="M58.245,193.9a5.607,5.607,0,1,1,6.742,4.176A5.623,5.623,0,0,1,58.245,193.9Z" transform="translate(100.467 323.404)"/><path class="c" d="M141.189,66.041a12.734,12.734,0,1,1-12.528,12.937A12.722,12.722,0,0,1,141.189,66.041Z" transform="translate(222.499 114.209)"/><path class="c" d="M161.237,49.15a6.652,6.652,0,1,1-7.4,5.814A6.656,6.656,0,0,1,161.237,49.15Z" transform="translate(265.963 84.919)"/><path class="c" d="M67.049,63.636A4.792,4.792,0,1,1,73.436,65.9,4.773,4.773,0,0,1,67.049,63.636Z" transform="translate(115.135 98.191)"/><path class="c" d="M194.582,162.749a11.231,11.231,0,1,1-11.764,10.672A11.231,11.231,0,0,1,194.582,162.749Z" transform="translate(316.137 281.432)"/><path class="c" d="M191.167,60.129A10.621,10.621,0,1,1,197.2,46.373,10.629,10.629,0,0,1,191.167,60.129Z" transform="translate(305.55 68.509)"/><path class="c" d="M120.24,281.7a4.533,4.533,0,1,1,3-5.65A4.544,4.544,0,0,1,120.24,281.7Z" transform="translate(197.84 471.827)"/><path class="c" d="M214.669,123.029a5.991,5.991,0,1,1-7.26-4.367A5.981,5.981,0,0,1,214.669,123.029Z" transform="translate(350.828 204.907)"/><path class="c" d="M268.79,269.57a5.322,5.322,0,1,1-5.35,5.295A5.295,5.295,0,0,1,268.79,269.57Z" transform="translate(455.584 466.189)"/><path class="c" d="M221.061,45.9a12.369,12.369,0,1,1,16.895,4.531A12.363,12.363,0,0,1,221.061,45.9Z" transform="translate(379.427 47.288)"/><path class="c" d="M248.565,12.021A11.057,11.057,0,1,1,233.881,17.4,11.059,11.059,0,0,1,248.565,12.021Z" transform="translate(402.689 19.015)"/><path class="c" d="M108.384,145.553a11.322,11.322,0,1,1-6.059,14.82A11.325,11.325,0,0,1,108.384,145.553Z" transform="translate(175.415 250.181)"/><path class="c" d="M136.355,174.569a9.865,9.865,0,1,1,1.774,13.838A9.865,9.865,0,0,1,136.355,174.569Z" transform="translate(232.246 295.268)"/><path class="c" d="M130.077,35.959a5.864,5.864,0,1,1-8.161,1.474A5.9,5.9,0,0,1,130.077,35.959Z" transform="translate(209.046 60.364)"/><path class="c" d="M161.654,215.026a7.94,7.94,0,1,1-10.508,3.958A7.955,7.955,0,0,1,161.654,215.026Z" transform="translate(260.169 370.645)"/><path class="c" d="M121.483,217.353a10.256,10.256,0,1,1,9.58-10.89A10.26,10.26,0,0,1,121.483,217.353Z" transform="translate(191.22 340.451)"/><path class="c" d="M120.979,58.242a5.774,5.774,0,1,1-7.287-3.685A5.757,5.757,0,0,1,120.979,58.242Z" transform="translate(189.731 93.841)"/><path class="c" d="M212.672,174.259a9.455,9.455,0,1,1,8.406-10.4A9.465,9.465,0,0,1,212.672,174.259Z" transform="translate(349.713 268.748)"/><path class="c" d="M2.609,243.112a6.547,6.547,0,1,1,9.253-.328A6.552,6.552,0,0,1,2.609,243.112Z" transform="translate(0.911 400.831)"/><path class="c" d="M179.8,256a4.654,4.654,0,1,1,.873-6.523A4.652,4.652,0,0,1,179.8,256Z" transform="translate(298.004 428.281)"/><path class="c" d="M160.855,118.214a6.073,6.073,0,1,1,1.228,8.516A6.057,6.057,0,0,1,160.855,118.214Z" transform="translate(276.089 200.251)"/><path class="c" d="M136.917,117.576a6.229,6.229,0,1,1,4.585,7.506A6.21,6.21,0,0,1,136.917,117.576Z" transform="translate(236.487 195.049)"/><path class="c" d="M168.484,264.524A12,12,0,1,1,156.065,276.1,11.976,11.976,0,0,1,168.484,264.524Z" transform="translate(269.879 457.451)"/><path class="c" d="M93.047,238.654a5.824,5.824,0,1,1-8.188.737A5.838,5.838,0,0,1,93.047,238.654Z" transform="translate(144.408 410.365)"/><path class="c" d="M269.153,129.539a10.171,10.171,0,1,1,10.453,9.908A10.138,10.138,0,0,1,269.153,129.539Z" transform="translate(465.456 205.985)"/><path class="c" d="M259.1,56.227a5.847,5.847,0,1,1-2.566,7.861A5.832,5.832,0,0,1,259.1,56.227Z" transform="translate(442.563 96.129)"/><path class="c" d="M92.25,8.634a8.9,8.9,0,1,1,3,12.228A8.888,8.888,0,0,1,92.25,8.634Z" transform="translate(157.323 7.499)"/><path class="c" d="M281.837,16.192A5.131,5.131,0,1,1,282.9,9.014,5.136,5.136,0,0,1,281.837,16.192Z" transform="translate(473.242 12.005)"/><path class="c" d="M256.947,187.709a4.452,4.452,0,1,1,4.613-4.285A4.47,4.47,0,0,1,256.947,187.709Z" transform="translate(436.94 309.23)"/><path class="c" d="M89.043,15.438a9.865,9.865,0,1,1-6.3-12.446A9.857,9.857,0,0,1,89.043,15.438Z" transform="translate(120.709 4.326)"/><path class="c" d="M6.833,19.807a8.916,8.916,0,1,1,8.325,9.471A8.917,8.917,0,0,1,6.833,19.807Z" transform="translate(11.781 19.826)"/><path class="c" d="M110.441,166.068a4.469,4.469,0,1,1-6.032,1.856A4.475,4.475,0,0,1,110.441,166.068Z" transform="translate(179.635 286.301)"/><path class="c" d="M45.689,79.347a10.609,10.609,0,1,1,3.6-14.575A10.576,10.576,0,0,1,45.689,79.347Z" transform="translate(51.23 103.142)"/><path class="c" d="M47.194,22.584a8,8,0,1,1-6.059-9.553A8,8,0,0,1,47.194,22.584Z" transform="translate(54.284 22.207)"/><path class="c" d="M257.688,14.68a6.077,6.077,0,1,1,5.431-6.66A6.106,6.106,0,0,1,257.688,14.68Z" transform="translate(434.069 4.429)"/><path class="c" d="M160.3,15.552a9.875,9.875,0,1,1-6.8-12.2A9.879,9.879,0,0,1,160.3,15.552Z" transform="translate(243.702 5.139)"/><path class="c" d="M159.591,18a5.925,5.925,0,1,1,6.086,5.759A5.92,5.92,0,0,1,159.591,18Z" transform="translate(275.988 20.598)"/><path class="c" d="M176,6.054a9.753,9.753,0,1,1,1.8,13.674A9.768,9.768,0,0,1,176,6.054Z" transform="translate(300.876 3.883)"/><path class="c" d="M69.181,210.794a5.619,5.619,0,1,1-3.466,7.151A5.592,5.592,0,0,1,69.181,210.794Z" transform="translate(113.112 363.987)"/><path class="c" d="M113.52,33.662a6.278,6.278,0,1,1,.409-8.87A6.265,6.265,0,0,1,113.52,33.662Z" transform="translate(178.112 39.351)"/><path class="c" d="M111.447,271.24a8.108,8.108,0,1,1-7.4-8.761A8.108,8.108,0,0,1,111.447,271.24Z" transform="translate(164.737 453.874)"/><path class="c" d="M101.378,98.725a8.482,8.482,0,1,1-7.533-9.334A8.486,8.486,0,0,1,101.378,98.725Z" transform="translate(146.066 154.509)"/><path class="c" d="M117.027,2.6A4.492,4.492,0,1,1,112.169,6.7,4.515,4.515,0,0,1,117.027,2.6Z" transform="translate(193.957 4.471)"/><path class="c" d="M228.086,99.11a8.961,8.961,0,1,1,4.5,11.845A8.969,8.969,0,0,1,228.086,99.11Z" transform="translate(393.09 162.257)"/><path class="c" d="M20.383,59.827A9.744,9.744,0,1,1,16.917,46.48,9.753,9.753,0,0,1,20.383,59.827Z" transform="translate(3.88 78.091)"/><path class="c" d="M198.371,23.144a8.832,8.832,0,1,1-11.027,5.868A8.832,8.832,0,0,1,198.371,23.144Z" transform="translate(323.32 39.361)"/><path class="c" d="M247.405,44.178a11.851,11.851,0,1,1-14.957,7.56A11.843,11.843,0,0,1,247.405,44.178Z" transform="translate(400.955 75.371)"/><path class="c" d="M260.593,114.991a7.028,7.028,0,1,1-3.412-9.334A7.025,7.025,0,0,1,260.593,114.991Z" transform="translate(427.481 181.585)"/><path class="c" d="M280.477,35.951a4.44,4.44,0,1,1-3.876,4.94A4.43,4.43,0,0,1,280.477,35.951Z" transform="translate(478.287 62.118)"/><path class="c" d="M125.68,143.4A10.269,10.269,0,1,1,123,157.672,10.271,10.271,0,0,1,125.68,143.4Z" transform="translate(209.595 244.885)"/><path class="c" d="M48.74,200.891a5.324,5.324,0,1,1-7.315,1.856A5.37,5.37,0,0,1,48.74,200.891Z" transform="translate(70.342 346.131)"/><path class="c" d="M61.439,165.251A10.744,10.744,0,1,1,76.451,167.6,10.736,10.736,0,0,1,61.439,165.251Z" transform="translate(102.677 256.248)"/><path class="c" d="M269.523,55.332a6.171,6.171,0,1,1,7.779-3.958A6.17,6.17,0,0,1,269.523,55.332Z" transform="translate(458.726 74.862)"/><path class="c" d="M90.392,144.822a5.019,5.019,0,1,1,6.96-1.392A5.04,5.04,0,0,1,90.392,144.822Z" transform="translate(152.467 234.564)"/><path class="c" d="M33.409,259.651a11.28,11.28,0,1,1-.628-15.94A11.269,11.269,0,0,1,33.409,259.651Z" transform="translate(23.935 416.28)"/><path class="c" d="M111.815,112.467a6.948,6.948,0,1,1-9.225,3.384A6.945,6.945,0,0,1,111.815,112.467Z" transform="translate(176.297 193.362)"/><path class="c" d="M54.971,271.066a7.214,7.214,0,1,1,9.635,3.357A7.228,7.228,0,0,1,54.971,271.066Z" transform="translate(93.833 450.882)"/><path class="c" d="M239.957,67.854a5.032,5.032,0,1,1-.328,7.1A4.99,4.99,0,0,1,239.957,67.854Z" transform="translate(412.115 115.071)"/><path class="c" d="M142.1,208.68a11.543,11.543,0,1,1,16.1,2.675A11.54,11.54,0,0,1,142.1,208.68Z" transform="translate(242.007 329.309)"/><path class="c" d="M203.041,229.62a5.291,5.291,0,1,1,5.759-4.776A5.292,5.292,0,0,1,203.041,229.62Z" transform="translate(342.832 378.841)"/><path class="c" d="M19.023,204.555a8.826,8.826,0,1,1,5.459,11.218A8.837,8.837,0,0,1,19.023,204.555Z" transform="translate(32.043 343.478)"/></g></svg>