<svg xmlns="http://www.w3.org/2000/svg" width="30.841" height="16.346" viewBox="0 0 30.841 16.346"><defs><style>.a{fill:#33475b;}.b{fill:#f97c00;}</style></defs><g transform="translate(-21.948 -21.1)"><g transform="translate(35.215 25.506)"><path class="a" d="M156.139,75.6h-.427a.081.081,0,0,1-.079-.04.134.134,0,0,1,0-.089l1.439-2.64-1.36-2.4a.1.1,0,0,1-.01-.089.1.1,0,0,1,.079-.04h.407a.174.174,0,0,1,.179.119l1.112,2.035h.03l1.082-2.025a.191.191,0,0,1,.179-.119h.427a.081.081,0,0,1,.079.04.134.134,0,0,1,0,.089l-1.37,2.392,1.429,2.64a.076.076,0,0,1,.01.089.089.089,0,0,1-.079.04h-.427a.161.161,0,0,1-.159-.109l-1.171-2.2h-.03l-1.171,2.2A.194.194,0,0,1,156.139,75.6Z" transform="translate(-155.625 -69.824)"/><path class="a" d="M202.686,87.414h-.367a.105.105,0,0,1-.119-.119V81.519a.105.105,0,0,1,.119-.119h.367a.105.105,0,0,1,.119.119v.318h.03a.836.836,0,0,1,.834-.437h.5a1.139,1.139,0,0,1,.863.318,1.238,1.238,0,0,1,.308.893v1.757a1.207,1.207,0,0,1-.308.893,1.131,1.131,0,0,1-.863.318h-.5a.827.827,0,0,1-.834-.437h-.03v2.134C202.8,87.375,202.756,87.414,202.686,87.414Zm.873-2.342h.486a.622.622,0,0,0,.695-.715V82.65a.622.622,0,0,0-.695-.715h-.486a.768.768,0,0,0-.566.2.76.76,0,0,0-.2.556v1.628a.76.76,0,0,0,.2.556A.768.768,0,0,0,203.56,85.072Z" transform="translate(-197.578 -79.822)"/><path class="a" d="M244.8,66.393v-.774c0-.079.04-.119.109-.119h.377a.105.105,0,0,1,.119.119v.774a.105.105,0,0,1-.119.119h-.377C244.84,66.512,244.8,66.473,244.8,66.393Zm0,4.764V67.2c0-.079.04-.119.109-.119h.377a.105.105,0,0,1,.119.119v3.96a.105.105,0,0,1-.119.119h-.367A.105.105,0,0,1,244.8,71.157Z" transform="translate(-235.95 -65.5)"/><path class="a" d="M264.786,85.6h-.367a.105.105,0,0,1-.119-.119v-3.96a.105.105,0,0,1,.119-.119h.367a.105.105,0,0,1,.119.119v.337h.03a.707.707,0,0,1,.308-.308,1.059,1.059,0,0,1,.546-.129h.318c.069,0,.109.04.109.119v.308a.2.2,0,0,1-.02.089.072.072,0,0,1-.079.02h-.447a.705.705,0,0,0-.566.218.889.889,0,0,0-.2.605V85.5C264.905,85.558,264.866,85.6,264.786,85.6Z" transform="translate(-253.515 -79.822)"/><path class="a" d="M293.1,66.393v-.774c0-.079.04-.119.109-.119h.377a.105.105,0,0,1,.119.119v.774a.105.105,0,0,1-.119.119h-.377C293.14,66.512,293.1,66.473,293.1,66.393Zm0,4.764V67.2c0-.079.04-.119.109-.119h.377a.105.105,0,0,1,.119.119v3.96a.105.105,0,0,1-.119.119h-.367A.105.105,0,0,1,293.1,71.157Z" transform="translate(-279.456 -65.5)"/><path class="a" d="M308.976,73.829h-.457c-.079,0-.119-.04-.119-.109v-.308a.105.105,0,0,1,.119-.119h.457c.06,0,.079-.02.079-.069v-.7a.105.105,0,0,1,.119-.119h.367c.069,0,.109.04.109.119v.7c0,.05.03.069.089.069h.873a.105.105,0,0,1,.119.119v.308c0,.069-.04.109-.119.109h-.873c-.06,0-.089.02-.089.069v2.362c0,.466.238.695.724.695h.318a.105.105,0,0,1,.119.119v.308c0,.069-.04.109-.119.109h-.4a1.284,1.284,0,0,1-.9-.318,1.137,1.137,0,0,1-.337-.883V73.9C309.065,73.849,309.035,73.829,308.976,73.829Z" transform="translate(-293.238 -71.715)"/></g><path class="b" d="M26.344,21.1H25.1a.649.649,0,0,0-.625.3.633.633,0,0,0,.069.675c.1.169,3.613,5.975,3.613,5.975a.387.387,0,0,0,.337.189h.109a.387.387,0,0,0,.337-.189L29.569,27a.419.419,0,0,0,.02-.377l-2.332-4.932A.909.909,0,0,0,26.344,21.1Z" transform="translate(-2.217)"/><path class="b" d="M26.4,110H26.29a.376.376,0,0,0-.337.2L22,116.927a.4.4,0,0,0,.129.536.425.425,0,0,0,.218.06.383.383,0,0,0,.318-.169l4.406-6.143a.393.393,0,0,0,.02-.427l-.337-.586A.432.432,0,0,0,26.4,110Z" transform="translate(0 -80.077)"/><path class="b" d="M82.487,21.1H81.2a.974.974,0,0,0-.853.586l-4.5,7.056a.417.417,0,0,0-.01.417l4.853,8.088a.4.4,0,0,0,.337.189.337.337,0,0,0,.189-.05.391.391,0,0,0,.169-.516L77.7,28.97l5.28-6.878c0-.01.01-.01.01-.02a.656.656,0,0,0,.079-.655A.588.588,0,0,0,82.487,21.1Z" transform="translate(-48.496)"/></g></svg>